<svg width="36" height="35" viewBox="0 0 36 35" fill="none" xmlns="http://www.w3.org/2000/svg">
    <path d="M3.547 17.297c0-6.678 0-10.017 2.136-12.091C7.818 3.13 11.256 3.13 18.13 3.13c6.875 0 10.312 0 12.448 2.075 2.136 2.074 2.136 5.413 2.136 12.091 0 6.679 0 10.018-2.136 12.093-2.136 2.074-5.573 2.074-12.448 2.074-6.874 0-10.312 0-12.447-2.074-2.136-2.075-2.136-5.414-2.136-12.093z" stroke="#A3A3A3" stroke-width="1.5"/>
    <path d="M3.547 18.715h4.609c1.32 0 1.98 0 2.56.26.58.258 1.01.745 1.869 1.719l.882 1c.86.974 1.29 1.46 1.87 1.72.58.26 1.24.26 2.56.26h.467c1.32 0 1.98 0 2.56-.26.58-.26 1.01-.746 1.869-1.72l.883-1c.859-.974 1.288-1.46 1.869-1.72.58-.26 1.24-.26 2.56-.26h4.609" stroke="#A3A3A3" stroke-width="1.5" stroke-linecap="round"/>
</svg>
